<svg xmlns="http://www.w3.org/2000/svg" width="223.385" height="47" viewBox="0 0 59.104 12.435"><g style="stroke-width:2.10510635"><g style="stroke-width:2.10510635"><path class="st1" d="M302.73 302.35h-71.67c-.71-1.48-1.11-3.15-1.11-4.9 0-1.75.4-3.41 1.11-4.9h71.67c.18-2.77.51-5.49.99-8.17h-76.94c-3.1 3.47-4.99 8.05-4.99 13.07s1.89 9.6 4.99 13.07h76.94c-.48-2.68-.81-5.41-.99-8.17" style="stroke-width:2.10510635" transform="matrix(.12569 0 0 .12569 -23.355 -31.193)"/><path class="st1" d="M314.94 338.28H208.33c-8.97-11.19-14.34-25.38-14.34-40.83s5.37-29.65 14.34-40.83h106.61c1.92-2.87 4.04-5.6 6.34-8.17H204.54c-11.64 13-18.72 30.17-18.72 49s7.08 36 18.72 49h116.74c-2.3-2.57-4.42-5.3-6.34-8.17" style="stroke-width:2.10510635" transform="matrix(.12569 0 0 .12569 -23.355 -31.193)"/><path class="st1" d="M306.19 320.31h-86.6a38.16 38.16 0 0 1-7.57-22.87c0-8.58 2.82-16.5 7.59-22.89h86.59c.92-2.8 2-5.53 3.23-8.17h-93.74c-7.38 8.24-11.87 19.12-11.87 31.05 0 11.92 4.49 22.8 11.86 31.03h93.74a71.586 71.586 0 0 1-3.23-8.15" style="stroke-width:2.10510635" transform="matrix(.12569 0 0 .12569 -23.355 -31.193)"/></g><g style="stroke-width:2.10510635" transform="matrix(.12569 0 0 .12569 -23.355 -31.193)"><path class="st1" d="M351.92 286.41c-2.61-2.41-3.91-6.16-3.91-11.26v-26.7h6.82v26.17c0 3.16.74 5.5 2.22 7.02 1.48 1.52 3.84 2.28 7.08 2.28 3.2 0 5.55-.76 7.05-2.28 1.5-1.52 2.25-3.86 2.25-7.02v-26.17h6.82v26.7c0 5.1-1.29 8.85-3.88 11.26s-6.67 3.62-12.24 3.62c-5.53-.01-9.6-1.21-12.21-3.62zM411.19 262.22c1.94 2.02 2.91 4.96 2.91 8.83v17.96h-6.52v-16.66c0-2.61-.53-4.52-1.6-5.75-1.07-1.22-2.71-1.84-4.92-1.84-2.33 0-4.11.66-5.34 1.99-1.23 1.32-1.84 3.29-1.84 5.9v16.36h-6.58v-29.04h6.58v3.26c2.02-2.69 5.04-4.03 9.07-4.03 3.56 0 6.31 1.01 8.24 3.02zM420.45 259.97h6.58v29.04h-6.58zM430.84 259.97h7.11l7.94 21.64 7.88-21.64h7.11l-11.32 29.04h-7.35zM484.67 280.95c.34-.67.54-1.34.62-2.02h6.52c-.28 2.92-1.42 5.34-3.44 7.23-1.3 1.15-2.88 2.03-4.74 2.64-1.86.61-3.89.92-6.1.92-3.4 0-6.29-.67-8.68-2.02-2.39-1.34-4.14-3.24-5.25-5.69-.95-2.13-1.42-4.66-1.42-7.59 0-1.5.12-2.86.36-4.09.24-1.22.59-2.37 1.07-3.44 1.11-2.45 2.82-4.35 5.13-5.69 2.31-1.34 5.09-2.02 8.33-2.02s6.02.67 8.33 2.02c2.31 1.34 4 3.22 5.07 5.63.59 1.34 1 2.75 1.22 4.21.22 1.46.33 3.2.33 5.22h-23.18c.12 1.74.42 3.1.89 4.09.59 1.34 1.54 2.37 2.85 3.08 1.3.71 2.92 1.07 4.86 1.07 1.26 0 2.41-.16 3.44-.47 1.03-.32 1.88-.77 2.55-1.36.48-.47.9-1.04 1.24-1.72zm-14.97-12.27c-.4.87-.65 1.8-.77 2.79h16.3c-.12-1.03-.35-2.04-.71-3.02-.63-1.3-1.56-2.29-2.79-2.96-1.23-.67-2.75-1.01-4.56-1.01-3.71-.01-6.2 1.4-7.47 4.2zM514.46 259.91v5.81c-.87-.2-1.86-.3-2.96-.3-2.53 0-4.44.76-5.72 2.28-1.28 1.52-1.93 3.73-1.93 6.61v14.7h-6.58v-29.04h6.52v3.38c1.7-2.53 4.27-3.79 7.71-3.79 1.14-.01 2.13.11 2.96.35zM522.42 288.48c-1.96-.95-3.37-2.37-4.24-4.27-.63-1.38-.95-3-.95-4.86h6.4c0 1.11.2 2.04.59 2.79.87 1.9 2.75 2.85 5.63 2.85s4.66-.75 5.33-2.25c.2-.51.3-1.01.3-1.48 0-.55-.1-1.07-.3-1.54a3.19 3.19 0 0 0-1.33-1.42c-.61-.36-1.36-.66-2.25-.92-.89-.26-2.14-.54-3.76-.86-2.21-.51-4.09-1.19-5.63-2.04-1.54-.85-2.65-2.02-3.32-3.53-.4-.91-.59-1.98-.59-3.2 0-1.3.24-2.45.71-3.44.75-1.62 2.05-2.88 3.91-3.76 1.86-.89 4.09-1.33 6.7-1.33 2.65 0 4.89.44 6.73 1.3 1.84.87 3.17 2.15 4 3.85.51 1.19.77 2.61.77 4.27h-6.22c0-.87-.16-1.68-.47-2.43-.4-.79-1.02-1.39-1.87-1.81-.85-.41-1.87-.62-3.05-.62-2.41 0-3.93.65-4.56 1.96-.16.36-.24.81-.24 1.36 0 .51.08.91.24 1.19.28.63.77 1.15 1.48 1.54.71.4 1.47.7 2.28.92.81.22 2.01.5 3.59.86 2.45.63 4.46 1.37 6.02 2.22 1.56.85 2.7 2.03 3.41 3.53.39.91.59 2 .59 3.26 0 1.38-.24 2.67-.71 3.85-.83 1.78-2.3 3.13-4.42 4.06-2.11.93-4.59 1.39-7.44 1.39-2.94-.02-5.38-.49-7.33-1.44zM547.39 259.97h6.58v29.04h-6.58zM588.63 248.44v40.57h-6.4v-3.5a10.632 10.632 0 0 1-4.12 3.14c-1.64.71-3.49 1.07-5.54 1.07-2.85 0-5.28-.63-7.29-1.9-2.02-1.26-3.54-3.04-4.56-5.33-.51-1.15-.91-2.4-1.19-3.76-.28-1.36-.41-2.78-.41-4.24 0-3 .53-5.69 1.6-8.06 1.03-2.29 2.55-4.07 4.56-5.33 2.02-1.26 4.45-1.9 7.29-1.9 2.02 0 3.83.35 5.45 1.04 1.62.69 2.98 1.71 4.09 3.05v-14.85zm-6.52 25.28c0-2.88-.7-5.1-2.1-6.64-1.4-1.54-3.33-2.31-5.78-2.31-1.7 0-3.16.35-4.39 1.04-1.23.69-2.15 1.73-2.79 3.11-.63 1.5-.95 3.36-.95 5.57 0 2.17.32 4.01.95 5.51.63 1.38 1.56 2.43 2.79 3.14 1.22.71 2.69 1.07 4.39 1.07 2.45 0 4.38-.78 5.78-2.34 1.4-1.56 2.1-3.78 2.1-6.67zM621.43 272v17.01h-6.58v-3.26c-2.09 2.65-5.41 3.97-9.96 3.97-2.57 0-4.74-.41-6.52-1.24-1.78-.83-3.02-2.05-3.73-3.68-.51-1.15-.77-2.45-.77-3.91s.24-2.73.71-3.79c.99-2.17 2.67-3.67 5.04-4.48 2.37-.81 5.43-1.22 9.19-1.22h6.05v-.77c0-.75-.04-1.37-.12-1.87-.08-.49-.24-1-.47-1.51-.87-1.9-2.88-2.85-6.05-2.85-1.62 0-2.94.22-3.97.65-1.03.44-1.76 1.13-2.19 2.07-.28.71-.41 1.36-.41 1.96H595c0-1.66.28-3.06.83-4.21 1.7-3.79 5.81-5.69 12.33-5.69 3.2 0 5.8.47 7.79 1.42 1.99.95 3.43 2.43 4.3 4.45.79 1.76 1.18 4.07 1.18 6.95zm-6.58 4.51v-.36h-5.63c-2.17 0-3.97.18-5.39.53-1.42.36-2.35 1.01-2.79 1.96-.24.47-.35 1.03-.35 1.66 0 .63.12 1.23.35 1.78.39.83 1.09 1.44 2.08 1.84.99.4 2.15.59 3.5.59 1.9 0 3.48-.34 4.74-1.01a6.216 6.216 0 0 0 2.79-2.96c.47-1.15.7-2.49.7-4.03zM655.97 248.44v40.57h-6.4v-3.5a10.632 10.632 0 0 1-4.12 3.14c-1.64.71-3.49 1.07-5.54 1.07-2.85 0-5.28-.63-7.29-1.9-2.02-1.26-3.54-3.04-4.56-5.33-.51-1.15-.91-2.4-1.19-3.76-.28-1.36-.41-2.78-.41-4.24 0-3 .53-5.69 1.6-8.06 1.03-2.29 2.55-4.07 4.56-5.33 2.02-1.26 4.45-1.9 7.29-1.9 2.02 0 3.83.35 5.45 1.04 1.62.69 2.98 1.71 4.09 3.05v-14.85zm-6.52 25.28c0-2.88-.7-5.1-2.1-6.64-1.4-1.54-3.33-2.31-5.78-2.31-1.7 0-3.16.35-4.39 1.04-1.23.69-2.15 1.73-2.79 3.11-.63 1.5-.95 3.36-.95 5.57 0 2.17.32 4.01.95 5.51.63 1.38 1.56 2.43 2.79 3.14 1.22.71 2.69 1.07 4.39 1.07 2.45 0 4.38-.78 5.78-2.34 1.4-1.56 2.1-3.78 2.1-6.67zM356.13 344.38c-3.04-1.82-5.3-4.41-6.76-7.77-1.42-3.12-2.13-6.94-2.13-11.44 0-4.43.71-8.26 2.13-11.5 1.5-3.32 3.76-5.89 6.79-7.71 3.02-1.82 6.73-2.73 11.11-2.73 2.73 0 5.24.4 7.53 1.19 2.29.79 4.27 1.96 5.93 3.5 1.54 1.38 2.75 3.06 3.62 5.04.87 1.98 1.34 4.13 1.42 6.46h-7.17c-.16-3-1.21-5.41-3.14-7.23-2.13-1.9-4.94-2.85-8.42-2.85-2.69 0-4.96.56-6.82 1.69-1.86 1.13-3.26 2.72-4.21 4.77-.51 1.23-.9 2.6-1.16 4.12-.26 1.52-.39 3.27-.39 5.25 0 2.02.12 3.78.36 5.31.24 1.52.63 2.88 1.19 4.06.95 2.09 2.35 3.7 4.21 4.8 1.86 1.11 4.13 1.66 6.82 1.66 1.78 0 3.4-.25 4.86-.74 1.46-.49 2.71-1.19 3.73-2.1 1.94-1.74 2.96-4.19 3.08-7.35h7.17c-.04 2.37-.48 4.55-1.33 6.52a14.79 14.79 0 0 1-3.59 5.1c-1.66 1.54-3.66 2.71-5.99 3.5s-4.88 1.19-7.65 1.19c-4.41-.02-8.14-.93-11.19-2.74zM397.2 344.73c-2.29-1.38-3.99-3.3-5.1-5.75-.99-2.09-1.48-4.56-1.48-7.41 0-2.85.49-5.33 1.48-7.47 1.11-2.45 2.81-4.37 5.1-5.75 2.29-1.38 5.1-2.07 8.42-2.07 3.32 0 6.14.69 8.45 2.07 2.31 1.38 4.02 3.3 5.13 5.75.99 2.21 1.48 4.7 1.48 7.47 0 2.69-.5 5.18-1.48 7.47-1.11 2.45-2.82 4.36-5.13 5.72-2.31 1.36-5.13 2.04-8.45 2.04-3.32.01-6.12-.69-8.42-2.07zm12.9-4.53c1.2-.73 2.1-1.75 2.7-3.05.59-1.34.89-3.2.89-5.57 0-2.41-.3-4.27-.89-5.57-.59-1.34-1.49-2.37-2.7-3.08-1.21-.71-2.7-1.07-4.48-1.07-1.78 0-3.26.36-4.45 1.07-1.19.71-2.07 1.74-2.67 3.08-.63 1.38-.95 3.24-.95 5.57 0 2.29.32 4.15.95 5.57.59 1.3 1.48 2.32 2.67 3.05s2.67 1.1 4.45 1.1c1.78-.01 3.27-.37 4.48-1.1zM449.73 319.3c1.93 2.02 2.9 4.96 2.9 8.83v17.96h-6.52v-16.66c0-2.61-.53-4.52-1.6-5.75-1.07-1.22-2.71-1.84-4.92-1.84-2.33 0-4.11.66-5.33 1.99-1.23 1.32-1.84 3.29-1.84 5.9v16.36h-6.58v-29.05h6.58v3.26c2.02-2.69 5.04-4.03 9.07-4.03 3.56.01 6.31 1.02 8.24 3.03zM463.35 344.35c-1.44-1.48-2.16-3.88-2.16-7.2v-14.7h-4.51v-5.39h4.51v-11.8h6.52v11.8h8.24v5.39h-8.24v13.51c0 1.74.37 3.01 1.1 3.82.73.81 1.87 1.22 3.41 1.22 1.26 0 2.43-.16 3.5-.47v5.45c-1.86.39-3.67.59-5.45.59-3.17 0-5.47-.74-6.92-2.22zM481.99 317.05h6.58v29.04h-6.58zM519.39 319.3c1.93 2.02 2.9 4.96 2.9 8.83v17.96h-6.52v-16.66c0-2.61-.53-4.52-1.6-5.75-1.07-1.22-2.71-1.84-4.92-1.84-2.33 0-4.11.66-5.34 1.99-1.23 1.32-1.84 3.29-1.84 5.9v16.36h-6.58v-29.05h6.58v3.26c2.02-2.69 5.04-4.03 9.07-4.03 3.56.01 6.31 1.02 8.25 3.03zM550.06 338.03c.34-.67.54-1.34.62-2.02h6.52c-.28 2.92-1.42 5.34-3.44 7.23-1.3 1.15-2.88 2.03-4.74 2.64-1.86.61-3.89.92-6.1.92-3.4 0-6.29-.67-8.68-2.02-2.39-1.34-4.14-3.24-5.25-5.69-.95-2.13-1.42-4.66-1.42-7.59 0-1.5.12-2.86.36-4.09.24-1.22.59-2.37 1.07-3.44 1.11-2.45 2.82-4.35 5.13-5.69 2.31-1.34 5.09-2.02 8.33-2.02s6.02.67 8.33 2.02c2.31 1.34 4 3.22 5.07 5.63.59 1.34 1 2.75 1.22 4.21.22 1.46.33 3.2.33 5.22H534.2c.12 1.74.42 3.1.89 4.09.59 1.34 1.54 2.37 2.85 3.08 1.3.71 2.92 1.07 4.86 1.07 1.26 0 2.41-.16 3.44-.47 1.03-.32 1.88-.77 2.55-1.36.51-.47.93-1.04 1.27-1.72zm-14.97-12.27c-.4.87-.65 1.8-.77 2.79h16.3c-.12-1.03-.35-2.04-.71-3.02-.63-1.3-1.56-2.29-2.79-2.96-1.23-.67-2.75-1.01-4.56-1.01-3.71-.01-6.2 1.4-7.47 4.2zM586.85 319.3c1.93 2.02 2.9 4.96 2.9 8.83v17.96h-6.52v-16.66c0-2.61-.53-4.52-1.6-5.75-1.07-1.22-2.71-1.84-4.92-1.84-2.33 0-4.11.66-5.34 1.99-1.23 1.32-1.84 3.29-1.84 5.9v16.36h-6.58v-29.05h6.58v3.26c2.02-2.69 5.04-4.03 9.07-4.03 3.56.01 6.31 1.02 8.25 3.03zM600.47 344.35c-1.44-1.48-2.16-3.88-2.16-7.2v-14.7h-4.51v-5.39h4.51v-11.8h6.52v11.8h8.24v5.39h-8.24v13.51c0 1.74.37 3.01 1.1 3.82.73.81 1.87 1.22 3.41 1.22 1.26 0 2.43-.16 3.5-.47v5.45c-1.86.39-3.67.59-5.45.59-3.18 0-5.48-.74-6.92-2.22zM644.36 329.08v17.01h-6.58v-3.26c-2.09 2.65-5.41 3.97-9.96 3.97-2.57 0-4.74-.41-6.52-1.24-1.78-.83-3.02-2.05-3.73-3.68-.51-1.15-.77-2.45-.77-3.91s.24-2.73.71-3.79c.99-2.17 2.67-3.67 5.04-4.48 2.37-.81 5.43-1.22 9.19-1.22h6.05v-.77c0-.75-.04-1.37-.12-1.87-.08-.49-.24-1-.47-1.51-.87-1.9-2.88-2.85-6.05-2.85-1.62 0-2.94.22-3.97.65-1.03.44-1.76 1.13-2.19 2.07-.28.71-.41 1.36-.41 1.96h-6.64c0-1.66.28-3.06.83-4.21 1.7-3.79 5.81-5.69 12.33-5.69 3.2 0 5.8.47 7.79 1.42 1.99.95 3.43 2.43 4.3 4.45.78 1.76 1.17 4.07 1.17 6.95zm-6.58 4.51v-.36h-5.63c-2.17 0-3.97.18-5.39.53-1.42.36-2.35 1.01-2.79 1.96-.24.47-.35 1.03-.35 1.66 0 .63.12 1.23.35 1.78.39.83 1.09 1.44 2.08 1.84.99.4 2.15.59 3.5.59 1.9 0 3.48-.34 4.74-1.01a6.216 6.216 0 0 0 2.79-2.96c.47-1.15.7-2.49.7-4.03zM649.49 305.25h6.58v40.84h-6.58z" style="stroke-width:2.10510635"/><circle class="st1" cx="423.74" cy="252.06" r="3.88" style="stroke-width:2.10510635"/><circle class="st1" cx="485.28" cy="308.88" r="3.88" style="stroke-width:2.10510635"/><circle class="st1" cx="550.68" cy="252.06" r="3.88" style="stroke-width:2.10510635"/></g></g></svg>